<?xml version="1.0" standalone="no"?>
<!DOCTYPE svg PUBLIC "-//W3C//DTD SVG 20010904//EN"
 "http://www.w3.org/TR/2001/REC-SVG-20010904/DTD/svg10.dtd">
<svg version="1.0" xmlns="http://www.w3.org/2000/svg"
 width="500.000000pt" height="500.000000pt" viewBox="0 0 500.000000 500.000000"
 preserveAspectRatio="xMidYMid meet">
<metadata>
Created by potrace 1.11, written by Peter Selinger 2001-2013
</metadata>
<g transform="translate(0.000000,500.000000) scale(0.100000,-0.100000)"
fill="#000000" stroke="none">
<path d="M2210 4988 c-473 -61 -908 -243 -1265 -529 -109 -87 -308 -285 -391
-389 -674 -844 -733 -2034 -147 -2935 99 -151 185 -257 323 -397 300 -303 632
-505 1040 -632 249 -77 438 -104 730 -104 370 0 647 55 977 194 534 223 1002
666 1258 1189 85 176 174 418 191 525 3 19 8 38 9 41 9 14 45 247 52 331 12
154 4 521 -12 548 -1 3 -6 30 -9 60 -4 30 -18 104 -31 164 -176 781 -721 1435
-1455 1749 -156 66 -305 113 -505 157 -163 36 -587 51 -765 28z m500 -42 c41
-4 89 -9 105 -11 17 -3 46 -7 65 -10 413 -60 860 -262 1199 -543 245 -204 467
-482 613 -767 112 -219 210 -512 235 -705 2 -19 6 -41 9 -48 11 -36 19 -198
18 -397 -1 -231 -17 -372 -65 -559 -153 -601 -523 -1118 -1049 -1464 -115 -76
-358 -198 -494 -247 -103 -38 -329 -99 -406 -110 -25 -3 -52 -8 -60 -10 -15
-4 -46 -8 -160 -21 -115 -13 -428 -6 -530 11 -14 2 -45 7 -70 10 -391 54 -840
252 -1169 518 -201 161 -433 429 -564 648 -139 235 -255 532 -302 776 -41 217
-56 583 -30 773 23 166 26 182 60 316 110 428 327 807 645 1124 518 519 1215
774 1950 716z"/>
<path d="M2265 4858 c4 -18 23 -107 43 -197 l37 -165 58 -1 57 -1 10 36 c5 19
21 82 36 140 15 58 28 106 29 108 3 3 28 -99 41 -163 2 -11 9 -44 15 -72 l12
-53 58 0 58 0 10 38 c6 20 28 108 49 195 39 155 39 157 18 158 -11 0 -32 2
-44 3 -16 2 -27 -4 -33 -18 -10 -25 -61 -225 -62 -244 -1 -35 -17 14 -37 113
-31 156 -30 153 -84 152 -52 -1 -44 13 -81 -137 -9 -36 -21 -83 -27 -105 l-11
-40 -8 40 c-5 22 -10 49 -13 60 -2 11 -12 53 -20 94 -9 40 -19 77 -22 82 -3 5
-25 9 -50 9 l-45 0 6 -32z"/>
<path d="M2955 4849 c-17 -47 -11 -61 32 -74 l43 -13 10 36 c10 38 2 52 -32
52 -9 0 -23 3 -32 6 -9 3 -18 0 -21 -7z"/>
<path d="M2903 4608 c-33 -158 -34 -152 33 -160 l29 -3 27 125 c34 156 34 156
1 164 -16 4 -35 9 -44 12 -13 4 -21 -20 -46 -138z"/>
<path d="M3369 4703 c-38 -107 -41 -111 -58 -80 -23 43 -87 66 -134 48 -53
-21 -106 -106 -107 -171 0 -78 78 -143 148 -122 29 9 32 8 27 -7 -4 -13 6 -21
39 -33 l44 -16 11 26 c34 88 131 355 129 356 -18 10 -62 26 -74 26 -8 0 -19
-12 -25 -27z m-91 -119 c29 -20 29 -71 -1 -115 -25 -37 -61 -48 -89 -26 -33
26 -22 104 19 137 31 24 42 25 71 4z"/>
<path d="M1810 4688 c-14 -5 -35 -21 -48 -36 -17 -21 -24 -24 -31 -14 -7 11
-16 11 -50 1 -22 -7 -41 -15 -41 -18 0 -13 83 -257 90 -264 6 -7 90 10 90 18
0 1 -11 35 -26 76 -32 94 -33 127 -6 150 43 35 68 8 107 -116 24 -75 26 -77
66 -64 19 7 37 15 41 18 4 4 -8 51 -26 105 -49 140 -86 173 -166 144z"/>
<path d="M1501 4561 c-17 -16 -31 -36 -31 -45 0 -19 -11 -21 -28 -4 -9 9 -20
7 -47 -8 -19 -10 -35 -20 -35 -22 0 -2 30 -61 66 -132 l67 -128 38 21 c22 11
39 25 39 29 0 5 -16 39 -35 77 -19 37 -35 79 -35 93 0 27 40 68 66 68 8 0 14
4 14 9 0 13 -34 71 -41 71 -4 0 -21 -13 -38 -29z"/>
<path d="M3545 4488 c-87 -48 -126 -154 -81 -221 27 -40 62 -58 104 -54 38 4
39 -1 11 -32 -32 -34 -83 -23 -131 27 l-36 39 -21 -27 -20 -28 25 -26 c73 -72
179 -100 236 -62 25 16 178 252 178 274 0 4 -18 18 -39 30 -36 21 -39 21 -46
5 -5 -15 -9 -13 -20 13 -26 63 -104 93 -160 62z m123 -97 c18 -23 7 -70 -25
-103 -63 -66 -134 2 -86 82 29 50 81 59 111 21z"/>
<path d="M2479 4376 c-2 -2 -51 -6 -109 -10 -741 -44 -1402 -558 -1637 -1275
-71 -218 -93 -375 -89 -631 4 -201 17 -297 66 -472 86 -302 237 -563 464 -797
442 -454 1087 -650 1711 -520 133 28 309 87 422 143 781 384 1193 1223 1017
2074 -143 693 -672 1248 -1361 1427 -51 14 -114 27 -141 31 -26 3 -69 10 -96
14 -27 4 -89 8 -139 9 -50 1 -94 4 -97 6 -4 3 -9 3 -11 1z m176 -60 c233 -18
451 -80 670 -191 446 -226 774 -611 923 -1085 26 -83 42 -151 68 -290 10 -58
13 -391 3 -460 -16 -114 -18 -123 -48 -243 -153 -603 -628 -1101 -1226 -1284
-205 -62 -352 -82 -575 -78 -288 5 -521 60 -775 185 -615 300 -1010 921 -1019
1598 -2 128 2 188 19 315 7 57 42 203 67 277 227 701 870 1207 1598 1257 47 3
86 6 87 7 3 3 126 -2 208 -8z"/>
<path d="M1202 3246 l-123 -62 475 -949 474 -949 228 457 c126 251 231 457
234 457 3 0 108 -205 233 -456 214 -428 229 -455 241 -433 19 36 63 115 246
444 205 367 183 327 380 685 90 162 169 303 175 312 10 16 17 14 78 -22 38
-22 67 -34 68 -27 0 7 1 146 2 309 l2 297 -55 -32 c-398 -226 -479 -275 -468
-284 7 -5 39 -24 71 -42 55 -31 57 -34 44 -55 -7 -11 -132 -226 -277 -476
-144 -250 -266 -459 -271 -464 -4 -5 -110 197 -236 448 -125 251 -230 456
-233 456 -3 0 -108 -206 -234 -457 l-228 -458 -342 683 c-187 375 -345 682
-351 682 -5 -1 -65 -29 -133 -64z"/>
<path d="M1155 4354 c-114 -59 -131 -187 -36 -267 69 -58 146 -44 233 44 l59
59 -21 30 c-21 29 -40 32 -40 7 0 -17 -67 -85 -91 -92 -25 -8 -69 2 -69 15 0
5 38 38 84 73 83 62 84 63 67 85 -44 59 -124 79 -186 46z m75 -64 c12 -9 8
-16 -25 -45 -48 -41 -65 -44 -65 -10 0 47 53 79 90 55z"/>
<path d="M3868 4236 c-39 -20 -76 -65 -87 -104 -22 -77 20 -146 126 -208 l46
-28 25 29 24 29 -36 13 c-80 27 -130 90 -103 127 10 14 23 6 91 -56 l79 -72
27 33 c49 58 49 124 -1 184 -51 62 -131 84 -191 53z m138 -92 c15 -22 12 -64
-4 -64 -4 0 -27 18 -50 40 -43 39 -43 40 -21 49 32 11 57 3 75 -25z"/>
<path d="M864 4101 c-30 -18 -50 -54 -56 -98 -3 -21 -7 -19 -59 27 l-56 49
-32 -33 -32 -33 113 -103 c62 -57 130 -120 150 -139 37 -34 38 -34 59 -15 45
41 43 48 -26 115 -36 35 -68 73 -71 86 -7 27 19 63 46 63 9 0 49 -29 88 -65
40 -36 76 -65 80 -65 4 0 19 15 34 34 l27 34 -72 63 c-94 84 -97 86 -132 93
-21 4 -40 0 -61 -13z"/>
<path d="M4265 4026 c-27 -22 -32 -23 -47 -9 -14 13 -19 13 -42 -2 -23 -15
-24 -19 -12 -37 13 -18 9 -24 -55 -79 -85 -73 -90 -99 -33 -172 20 -26 40 -47
44 -47 4 0 18 8 30 18 l21 17 -20 27 c-12 14 -21 33 -21 41 0 8 25 34 56 57
l55 43 31 -37 30 -37 24 22 24 22 -25 33 c-31 41 -31 48 0 68 32 21 31 29 -2
66 l-28 30 -30 -24z"/>
<path d="M626 3809 l-27 -40 -35 22 c-19 12 -36 20 -38 18 -41 -56 -48 -72
-35 -80 46 -26 54 -37 42 -58 -10 -17 -9 -22 13 -36 24 -15 27 -15 44 0 17 16
22 14 80 -25 66 -45 116 -58 141 -38 18 15 79 98 79 107 0 4 -13 14 -28 23
-28 17 -29 17 -46 -13 -9 -16 -24 -29 -33 -29 -19 0 -122 62 -123 73 0 5 9 22
21 38 23 33 20 52 -9 68 -17 9 -24 5 -46 -30z"/>
<path d="M4575 3605 c-16 -8 -93 -44 -170 -80 -76 -36 -141 -67 -142 -69 -3
-3 104 -236 112 -244 6 -7 65 19 65 28 0 5 -16 41 -35 82 l-36 73 141 67 c77
37 140 70 140 74 0 13 -34 84 -39 84 -3 0 -19 -7 -36 -15z"/>
<path d="M479 3589 c-6 -12 -9 -41 -6 -65 4 -38 3 -42 -13 -34 -13 7 -20 1
-38 -34 l-21 -44 130 -61 c71 -33 131 -61 134 -61 2 0 13 18 24 40 l20 41 -72
35 c-106 51 -131 91 -88 146 l20 25 -35 16 c-43 21 -41 21 -55 -4z"/>
<path d="M406 3269 c-92 -26 -143 -173 -89 -256 25 -38 97 -66 154 -61 65 7
104 43 125 116 26 88 5 146 -64 181 -47 24 -88 30 -126 20z m99 -115 c32 -21
38 -54 17 -83 -46 -62 -188 2 -152 69 22 42 83 48 135 14z"/>
<path d="M4675 3220 c-33 -10 -105 -30 -160 -45 -55 -15 -104 -31 -109 -35 -9
-9 0 -47 45 -202 l19 -66 35 11 c19 6 35 13 35 16 0 3 -9 38 -20 76 -11 38
-20 75 -20 81 0 6 64 28 143 49 78 20 145 40 149 44 4 3 2 25 -5 49 -13 49
-19 50 -112 22z"/>
<path d="M140 2861 c0 -10 -3 -32 -6 -49 -6 -28 -4 -30 32 -36 22 -3 79 -8
129 -11 49 -4 91 -8 93 -10 1 -1 -58 -29 -133 -60 -91 -40 -135 -63 -135 -74
-1 -9 -3 -32 -6 -52 -3 -21 -2 -39 3 -42 4 -3 46 -8 93 -11 147 -12 204 -17
248 -22 23 -2 42 -1 43 3 1 4 3 27 4 51 l4 42 -37 1 c-20 1 -50 3 -67 5 -25 3
-79 8 -145 14 -8 0 45 27 119 58 145 62 149 66 147 141 -1 28 -5 34 -26 36
-46 5 -174 15 -255 21 -44 3 -86 7 -92 9 -7 3 -13 -4 -13 -14z"/>
<path d="M4620 2838 c-87 -25 -134 -94 -133 -195 1 -80 27 -138 63 -139 46 -1
50 5 29 49 -30 67 -25 113 15 153 32 32 44 36 113 37 72 0 120 -61 109 -141
-3 -25 -10 -50 -16 -57 -14 -17 -5 -22 35 -17 44 5 55 28 55 110 -1 153 -122
243 -270 200z"/>
<path d="M4502 1486 l-20 -43 36 -19 c21 -10 40 -20 44 -22 8 -4 48 57 48 73
0 6 -20 20 -44 32 l-43 21 -21 -42z"/>
<path d="M674 1458 c-44 -41 -47 -78 -14 -170 24 -65 24 -68 7 -85 -16 -16
-20 -16 -44 -3 -29 16 -72 92 -73 127 0 31 -12 34 -48 12 l-31 -21 19 -50 c58
-154 159 -209 246 -134 32 28 39 39 39 72 0 22 -11 63 -23 92 -26 60 -26 95 1
100 33 7 74 -46 101 -131 6 -18 8 -18 39 2 36 24 36 26 0 99 -60 119 -147 155
-219 90z"/>
<path d="M4257 1434 c-32 -17 -57 -62 -57 -103 0 -24 -4 -28 -19 -24 -13 3
-25 -6 -41 -32 -12 -20 -19 -40 -14 -44 10 -9 204 -144 220 -154 7 -4 22 10
37 32 l26 39 -70 48 c-85 58 -103 86 -83 126 8 16 22 28 30 28 9 0 52 -25 95
-55 43 -30 83 -55 88 -55 15 0 55 70 45 79 -23 21 -178 121 -188 122 -6 0 -18
2 -27 4 -8 1 -27 -4 -42 -11z"/>
<path d="M870 1165 c-13 -14 -22 -26 -19 -28 2 -2 21 -14 41 -27 43 -29 74
-79 64 -105 -5 -15 -14 -10 -59 32 -60 57 -95 70 -135 49 -42 -22 -54 -41 -56
-87 -1 -35 5 -46 36 -75 26 -23 48 -34 70 -35 18 0 27 -3 21 -6 -20 -8 -15
-28 15 -62 l28 -32 82 84 c45 47 83 92 83 101 1 9 2 23 2 31 0 8 -1 21 -2 28
-1 18 -63 89 -110 126 l-38 30 -23 -24z m5 -182 c31 -34 31 -37 1 -51 -43 -19
-104 30 -77 62 20 24 47 19 76 -11z"/>
<path d="M4014 1136 c-25 -25 -34 -43 -34 -66 0 -28 -2 -31 -15 -20 -13 11
-21 8 -50 -20 l-35 -34 106 -103 107 -103 31 33 32 32 -68 71 c-72 77 -83 107
-49 138 26 23 46 13 123 -62 l68 -66 30 29 c16 16 30 32 30 37 0 11 -148 151
-168 160 -40 16 -74 8 -108 -26z"/>
<path d="M1181 1027 c-27 -30 -26 -37 13 -69 l33 -27 22 30 c24 33 23 39 -18
68 l-28 20 -22 -22z"/>
<path d="M3723 1022 l-31 -27 20 -28 c24 -33 29 -33 67 -1 l31 26 -21 29 c-11
16 -23 29 -27 29 -4 -1 -21 -13 -39 -28z"/>
<path d="M1036 850 c-88 -109 -88 -111 -70 -131 43 -48 47 -46 145 73 l92 111
-33 29 c-19 15 -37 28 -40 28 -3 0 -45 -50 -94 -110z"/>
<path d="M3818 952 c-1 -4 -15 -16 -29 -28 l-26 -20 89 -112 c50 -62 93 -112
96 -112 4 0 22 13 40 28 l32 27 -91 113 c-87 107 -103 122 -111 104z"/>
<path d="M3621 917 l-53 -30 6 -56 c3 -31 9 -80 12 -108 4 -29 4 -53 0 -53 -4
0 -43 27 -86 60 -43 33 -82 60 -87 60 -4 0 -31 -14 -60 -30 l-52 -30 91 -158
c50 -86 95 -162 100 -169 7 -9 19 -6 46 11 21 13 36 28 35 34 -1 5 -32 60 -68
121 -36 62 -59 109 -53 104 7 -4 48 -34 91 -66 77 -58 77 -58 105 -41 27 16
28 18 21 73 -4 31 -10 81 -14 111 l-6 55 22 -35 c12 -19 30 -48 39 -65 9 -16
31 -56 49 -87 l32 -57 35 21 c19 11 36 24 39 29 5 7 -163 309 -184 331 -3 3
-30 -8 -60 -25z"/>
<path d="M1165 743 c-84 -133 -83 -126 -23 -158 l26 -15 51 80 c53 84 80 102
120 80 32 -17 25 -47 -29 -134 -27 -44 -47 -83 -45 -87 3 -4 20 -16 39 -27
l34 -20 57 90 c64 102 76 145 51 183 -22 33 -72 58 -107 53 -23 -4 -28 -1 -26
15 1 12 -11 27 -34 42 l-35 23 -79 -125z"/>
<path d="M1563 725 c-13 -28 -21 -33 -39 -29 -16 4 -25 0 -33 -14 -15 -29 -14
-38 8 -48 19 -9 19 -11 -8 -69 -38 -81 -44 -102 -37 -130 6 -25 70 -68 116
-80 21 -5 27 -1 37 24 10 28 9 30 -18 40 -42 15 -45 33 -14 106 l28 64 38 -19
c50 -26 53 -25 66 10 11 30 11 31 -29 47 -41 17 -42 19 -23 78 5 17 -1 24 -30
38 -20 9 -38 17 -41 17 -2 0 -12 -16 -21 -35z"/>
<path d="M1915 628 c-3 -7 -22 -92 -43 -188 -28 -125 -36 -177 -28 -182 7 -4
29 -8 50 -10 l39 -3 14 63 14 62 32 -7 c18 -4 58 -8 89 -8 46 0 61 4 82 24 52
48 58 137 13 178 -34 31 -57 41 -156 63 -107 24 -100 23 -106 8z m156 -99 c30
-15 39 -42 25 -70 -10 -20 -19 -24 -59 -23 -26 0 -49 3 -53 7 -3 3 -1 28 6 56
11 45 14 49 37 45 15 -3 34 -9 44 -15z"/>
<path d="M2900 628 c-19 -5 -37 -11 -39 -13 -3 -4 79 -386 84 -393 1 -2 23 2
47 8 l44 11 -32 142 c-18 78 -37 168 -44 200 -6 31 -14 57 -18 56 -4 0 -23 -5
-42 -11z"/>
<path d="M2735 480 c-1 -3 -1 -12 0 -20 1 -8 5 -46 9 -85 8 -90 -5 -120 -54
-120 -28 0 -35 4 -40 26 -8 30 -19 121 -20 162 0 24 -4 27 -34 27 -59 0 -65
-6 -60 -58 20 -189 29 -213 83 -233 34 -14 87 -1 116 28 25 25 25 25 25 4 0
-19 4 -21 38 -17 20 3 43 5 50 5 7 1 11 4 8 9 -2 4 -7 43 -11 87 -3 44 -8 89
-10 100 -2 11 -4 37 -4 58 l-1 38 -46 -3 c-25 -2 -47 -5 -49 -8z"/>
<path d="M2233 473 c-7 -2 -13 -20 -13 -39 0 -31 2 -33 23 -25 26 10 118 8
136 -3 6 -4 11 -15 11 -24 0 -14 -12 -17 -76 -18 -66 0 -78 -4 -99 -25 -84
-85 19 -205 129 -150 32 17 35 17 39 1 3 -12 16 -17 49 -18 l45 -2 2 62 c1 35
4 80 6 102 2 21 -2 53 -10 71 -21 53 -56 69 -149 71 -45 1 -87 0 -93 -3z m157
-174 c0 -22 -22 -50 -46 -59 -47 -18 -85 25 -52 58 15 15 98 16 98 1z"/>
<path d="M3155 378 c-16 -5 -35 -11 -42 -13 -10 -3 -9 -13 2 -45 8 -22 14 -42
15 -45 0 -3 0 -23 0 -45 0 -32 4 -40 19 -40 25 0 36 16 54 75 11 39 12 57 3
82 -14 41 -16 42 -51 31z"/>
</g>
</svg>
